<svg xmlns="http://www.w3.org/2000/svg" width="32" height="32" viewBox="0 0 32 32">
    <g fill="none" fill-rule="nonzero">
        <circle cx="16" cy="16" r="16" fill="#F0F0F0"/>
        <path fill="#D80027" d="M0 16C0 7.163 7.163 0 16 0s16 7.163 16 16"/>
        <g fill="#F0F0F0">
            <path d="M9.74 8.348a4.87 4.87 0 0 1 3.825-4.757 4.87 4.87 0 1 0 0 9.513A4.87 4.87 0 0 1 9.74 8.348zM16 3.826l.345 1.063h1.118l-.904.657.345 1.063L16 5.952l-.904.657.345-1.063-.904-.657h1.118z"/>
            <path d="M13.29 5.913l.344 1.063h1.118l-.904.657.345 1.063-.904-.657-.904.657.345-1.063-.904-.657h1.118zM18.711 5.913l.345 1.063h1.118l-.904.657.345 1.063-.904-.657-.904.657.345-1.063-.904-.657h1.118zM17.668 9.043l.345 1.063h1.117l-.904.657.346 1.063-.904-.657-.905.657.346-1.063-.904-.657h1.117zM14.332 9.043l.346 1.063h1.117l-.904.657.346 1.063-.905-.657-.904.657.346-1.063-.904-.657h1.117z"/>
        </g>
    </g>
</svg>
