<svg xmlns="http://www.w3.org/2000/svg" width="56" height="56" viewBox="0 0 56 56">
    <g fill="none" fill-rule="evenodd">
        <path fill="#4579F5" fill-rule="nonzero" d="M7.35 41.3c4.053 0 7.35 3.297 7.35 7.35 0 4.053-3.297 7.35-7.35 7.35C3.297 56 0 52.703 0 48.65c0-4.053 3.297-7.35 7.35-7.35zM27.65 0C31.703 0 35 3.297 35 7.35c0 1.138-.26 2.216-.723 3.178l10.7 10.757a7.306 7.306 0 0 1 3.673-.985c4.053 0 7.35 3.297 7.35 7.35 0 3.194-2.048 5.919-4.9 6.93v7.14c2.852 1.011 4.9 3.736 4.9 6.93 0 4.053-3.297 7.35-7.35 7.35-4.053 0-7.35-3.297-7.35-7.35 0-3.45 2.389-6.352 5.6-7.14v-6.72c-3.211-.788-5.6-3.69-5.6-7.14 0-1.191.285-2.317.79-3.313L31.45 13.64a7.306 7.306 0 0 1-3.8 1.06c-4.053 0-7.35-3.297-7.35-7.35C20.3 3.297 23.597 0 27.65 0zM7.35 0c4.053 0 7.35 3.297 7.35 7.35 0 3.45-2.389 6.352-5.6 7.14v6.02c3.211.788 5.6 3.69 5.6 7.14a7.326 7.326 0 0 1-2.106 5.145L22.87 43.07a7.336 7.336 0 0 1 3.029-1.56v-6.72c-3.211-.788-5.6-3.69-5.6-7.14 0-4.053 3.297-7.35 7.35-7.35 4.053 0 7.35 3.297 7.35 7.35 0 3.194-2.048 5.92-4.9 6.93v7.14c2.852 1.01 4.9 3.736 4.9 6.93 0 4.053-3.297 7.35-7.35 7.35-4.053 0-7.35-3.297-7.35-7.35 0-.675.091-1.328.262-1.95L8.73 34.87c-.447.085-.908.13-1.38.13C3.297 35 0 31.703 0 27.65c0-3.194 2.048-5.919 4.9-6.93v-6.44C2.047 13.269 0 10.544 0 7.35 0 3.297 3.297 0 7.35 0zm0 45.5a3.154 3.154 0 0 0-3.15 3.15 3.154 3.154 0 0 0 3.15 3.15 3.154 3.154 0 0 0 3.15-3.15 3.154 3.154 0 0 0-3.15-3.15zm41.3 0a3.154 3.154 0 0 0-3.15 3.15 3.154 3.154 0 0 0 3.15 3.15 3.154 3.154 0 0 0 3.15-3.15 3.154 3.154 0 0 0-3.15-3.15zm-21 0a3.154 3.154 0 0 0-3.15 3.15 3.154 3.154 0 0 0 3.15 3.15 3.154 3.154 0 0 0 3.15-3.15 3.154 3.154 0 0 0-3.15-3.15zm-20.3-21a3.154 3.154 0 0 0-3.15 3.15 3.154 3.154 0 0 0 3.15 3.15 3.154 3.154 0 0 0 3.15-3.15 3.154 3.154 0 0 0-3.15-3.15zm41.3 0a3.154 3.154 0 0 0-3.15 3.15 3.154 3.154 0 0 0 3.15 3.15 3.154 3.154 0 0 0 3.15-3.15 3.154 3.154 0 0 0-3.15-3.15zm-21 0a3.154 3.154 0 0 0-3.15 3.15 3.154 3.154 0 0 0 3.15 3.15 3.154 3.154 0 0 0 3.15-3.15 3.154 3.154 0 0 0-3.15-3.15zm21-24.5C52.703 0 56 3.297 56 7.35c0 4.053-3.297 7.35-7.35 7.35-4.053 0-7.35-3.297-7.35-7.35C41.3 3.297 44.597 0 48.65 0zM7.35 4.2A3.154 3.154 0 0 0 4.2 7.35a3.154 3.154 0 0 0 3.15 3.15 3.154 3.154 0 0 0 3.15-3.15A3.154 3.154 0 0 0 7.35 4.2zm41.3 0a3.154 3.154 0 0 0-3.15 3.15 3.154 3.154 0 0 0 3.15 3.15 3.154 3.154 0 0 0 3.15-3.15 3.154 3.154 0 0 0-3.15-3.15zm-21 0a3.154 3.154 0 0 0-3.15 3.15 3.154 3.154 0 0 0 3.15 3.15 3.154 3.154 0 0 0 3.15-3.15 3.154 3.154 0 0 0-3.15-3.15z"/>
    </g>
</svg>
