<svg xmlns="http://www.w3.org/2000/svg" width="56" height="56" viewBox="0 0 56 56">
    <path fill="#4579F5" fill-rule="nonzero" d="M24.02.515c.755-.687 1.99-.687 2.745 0l5.764 5.147L38.294.515c.755-.687 1.99-.687 2.745 0l5.765 5.147L52.569.583c.617-.549 1.44-.686 2.196-.343C55.52.515 56 1.27 56 2.093V45.81a9.812 9.812 0 0 1-9.814 9.814H9.471l-.277-.015C4.04 55.265 0 51.001 0 45.808V40.8c0-1.167.892-2.059 2.059-2.059h7V2.093c0-.755.48-1.51 1.235-1.853.755-.343 1.579-.206 2.196.343l5.765 5.079zm12.353 42.343H4.118v2.95a5.682 5.682 0 0 0 5.696 5.697h28.412a9.584 9.584 0 0 1-1.853-5.696v-2.951zm3.294-38.02l-5.765 5.147c-.755.686-1.99.686-2.745 0l-5.765-5.147-5.765 5.147c-.754.686-1.99.686-2.745 0l-3.706-3.294v32.05h25.255c1.167 0 2.06.891 2.06 2.058v5.01a5.682 5.682 0 0 0 5.695 5.696 5.682 5.682 0 0 0 5.696-5.696V6.69l-3.705 3.294c-.824.686-1.99.686-2.745 0l-5.765-5.147zm4.049 23.128c1.166 0 2.058.892 2.058 2.059 0 1.166-.892 2.058-2.058 2.058H21.412c-1.167 0-2.059-.892-2.059-2.058 0-1.167.892-2.06 2.059-2.06h22.304zm-9.608-9.608c1.167 0 2.059.892 2.059 2.059 0 1.166-.892 2.059-2.06 2.059H21.413c-1.167 0-2.059-.893-2.059-2.06 0-1.166.892-2.058 2.059-2.058h12.696z"/>
</svg>
