<svg xmlns="http://www.w3.org/2000/svg" width="56" height="56" viewBox="0 0 56 56">
    <path fill="#4579F5" fill-rule="nonzero" d="M55.732 39.622a2.469 2.469 0 0 1-1.101 3.314l-25.53 12.79a2.457 2.457 0 0 1-1.101.262 2.457 2.457 0 0 1-1.1-.263L1.37 42.96a2.469 2.469 0 0 1 2.059-4.485l.153.07L28 50.726l24.418-12.203a2.469 2.469 0 0 1 3.314 1.1zm0-12.74a2.469 2.469 0 0 1-1.101 3.313L29.101 42.96c-.341.172-.718.262-1.101.263a2.457 2.457 0 0 1-1.1-.263L1.37 30.207a2.469 2.469 0 0 1 2.059-4.485l.153.07L28 37.995 52.418 25.78a2.469 2.469 0 0 1 3.314 1.101zM29.112.261l25.519 12.765a2.464 2.464 0 0 1 0 4.415L29.1 30.207a2.471 2.471 0 0 1-1.101.251 2.458 2.458 0 0 1-1.1-.263L1.37 17.442a2.464 2.464 0 0 1 0-4.415L26.9.262a2.468 2.468 0 0 1 2.213 0zm-1.112 5L7.997 15.229 28 25.23l20.003-10.002L28 5.263z"/>
</svg>
