<svg class="icon__role icon__role_buyer" xmlns="http://www.w3.org/2000/svg" viewBox="0 0 96 58">
    <defs>
        <radialGradient id="a" cx="21.045%" cy="27.28%" r="149.937%" fx="21.045%" fy="27.28%" gradientTransform="matrix(.52659 .485 -.13355 .39992 .136 .062)">
            <stop offset="0%" stop-color="#FFF"/>
            <stop offset="100%" stop-color="#FFF" stop-opacity="0"/>
        </radialGradient>
    </defs>
    <path fill="url(#a)" fill-rule="nonzero" d="M136.774 68C140.8 68 144 71.2 144 75.226v43.355c0 4.025-3.2 7.225-7.226 7.225H55.226A7.181 7.181 0 0 1 48 118.581V75.226C48 71.2 51.2 68 55.226 68zm-81.858 46.968h-.722v3.613c0 .516.516 1.032 1.032 1.032h3.82v-.516a4.141 4.141 0 0 0-4.13-4.13zm82.89 0h-.516a4.141 4.141 0 0 0-4.129 4.129v.516h3.613c.517 0 1.033-.516 1.033-1.032v-3.613zm-10.838-40.774H65.136v.516c0 5.677-4.646 10.322-10.323 10.322h-.62v23.742h.723c5.678 0 10.323 4.645 10.323 10.323v.516h61.729v-.516c0-5.678 4.645-10.323 10.322-10.323h.517V85.032h-.516c-5.678 0-10.323-4.645-10.323-10.322v-.516zm-30.452 5.47c4.5 0 8.71 1.745 11.971 4.763l.313.296c3.303 3.303 5.058 7.639 5.058 12.284 0 4.645-1.858 8.98-5.058 12.283-3.303 3.2-7.639 5.059-12.284 5.059-4.645 0-8.98-1.859-12.284-5.059-3.303-3.303-5.058-7.638-5.058-12.283s1.858-8.981 5.058-12.284c3.304-3.303 7.64-5.058 12.284-5.058zm0 5.988c-2.993 0-5.78 1.135-7.948 3.303-2.065 2.064-3.303 4.955-3.303 7.948 0 2.994 1.135 5.78 3.303 7.949 2.064 2.064 4.955 3.303 7.948 3.303 2.994 0 5.78-1.136 7.949-3.303 2.167-2.168 3.303-4.955 3.303-7.949a11.07 11.07 0 0 0-3.048-7.685l-.255-.263c-2.168-2.065-4.955-3.303-7.949-3.303zm40.258-11.458h-3.612v.516a4.141 4.141 0 0 0 4.129 4.129h.516v-3.613c0-.516-.517-1.032-1.033-1.032zm-77.832 0h-3.716c-.516 0-1.032.516-1.032 1.032v3.613h.619a4.141 4.141 0 0 0 4.129-4.13v-.515z" transform="translate(-48 -68)"/>
</svg>
