<svg class="icon__role icon__role_miner" xmlns="http://www.w3.org/2000/svg" viewBox="0 0 44 48">
    <defs>
        <radialGradient id="a" cx="21.045%" cy="27.28%" r="110.109%" fx="21.045%" fy="27.28%" gradientTransform="matrix(.71707 .66044 -.31874 .31071 .146 .049)">
            <stop offset="0%" stop-color="#FFF"/>
            <stop offset="100%" stop-color="#FFF" stop-opacity="0"/>
        </radialGradient>
    </defs>
    <path fill="url(#a)" fill-rule="nonzero" d="M59.51 24c.604 0 1.21.385 1.484.99a1.598 1.598 0 0 1-.275 1.76l-3.52 3.96 3.52 3.959c.44.495.495 1.155.275 1.76-.22.605-.825.99-1.485.99H49.115v5.373l4.895 8.21 2.474-4.124c.33-.495.825-.825 1.43-.825l.15.007c.545.049 1.028.364 1.28.818l10.89 18.203c.274.495.274 1.1 0 1.65a1.641 1.641 0 0 1-1.43.825h-4.84l1.155 1.925a1.753 1.753 0 0 1 0 1.65 1.641 1.641 0 0 1-1.43.824H31.242c-.605 0-1.1-.33-1.43-.825a1.498 1.498 0 0 1 0-1.65l1.155-1.924h-4.29c-.605 0-1.155-.33-1.43-.825a1.498 1.498 0 0 1 0-1.65l10.834-18.203c.33-.495.825-.825 1.43-.825l.15.007c.545.049 1.028.364 1.28.818l2.2 3.684 4.674-7.773v-17.14c0-.885.642-1.573 1.505-1.643l.145-.006zM47.464 46.438L34.157 68.656h26.617L47.465 46.438zm-9.899 4.454l-7.974 13.364h3.355l6.324-10.559-1.705-2.805zm20.348.055l-1.98 3.245 6.05 10.064h3.905l-7.975-13.309zM55.824 27.3h-6.709v6.82h6.71l-2.035-2.31a1.56 1.56 0 0 1 0-2.2l2.035-2.31z" transform="translate(-27 -24)"/>
</svg>
