<svg class="icon__role icon__role_news" xmlns="http://www.w3.org/2000/svg" viewBox="0 0 50 46">
    <defs>
        <radialGradient id="a" cx="21.045%" cy="27.28%" r="112.025%" fx="21.045%" fy="27.28%" gradientTransform="matrix(.7048 .64914 -.27505 .34785 .137 .041)">
            <stop offset="0%" stop-color="#FFF"/>
            <stop offset="100%" stop-color="#FFF" stop-opacity="0"/>
        </radialGradient>
    </defs>
    <path fill="url(#a)" fill-rule="nonzero" d="M70.52 25.5c.935 0 1.65.715 1.65 1.65v36.296c0 3.96-3.19 7.15-7.15 7.15H29.55a6.032 6.032 0 0 1-6.05-6.05V37.05c0-.935.715-1.65 1.65-1.65h7.15v-8.25c0-.934.714-1.649 1.649-1.649zM32.3 38.699h-5.5v25.847c0 1.54 1.21 2.75 2.75 2.75s2.75-1.21 2.75-2.75V38.7zm36.57-9.9H35.6v35.747c0 .99-.22 1.925-.66 2.75H65.02a3.826 3.826 0 0 0 3.85-3.85V28.8zm-6.489 30.633c.935 0 1.65.715 1.65 1.65a1.62 1.62 0 0 1-1.65 1.65H41.208a1.62 1.62 0 0 1-1.65-1.65c0-.935.715-1.65 1.65-1.65h21.173zm-10.999-7.15c.935 0 1.65.715 1.65 1.65a1.62 1.62 0 0 1-1.65 1.65H41.208a1.62 1.62 0 0 1-1.65-1.65c0-.935.715-1.65 1.65-1.65h10.174zm12.1-19.798c.934 0 1.649.715 1.649 1.65v11a1.62 1.62 0 0 1-1.65 1.649H40.933a1.62 1.62 0 0 1-1.65-1.65V34.134c0-.935.715-1.65 1.65-1.65h22.548zm-1.65 3.3H42.582v7.7h19.248v-7.7z" transform="translate(-23 -25)"/>
</svg>
