<svg class="icon__role icon__role_seller" xmlns="http://www.w3.org/2000/svg" viewBox="0 0 46 38">
    <defs>
        <radialGradient id="a" cx="21.045%" cy="27.28%" r="123.688%" fx="21.045%" fy="27.28%" gradientTransform="matrix(.63834 .58793 -.21217 .36992 .134 .048)">
            <stop offset="0%" stop-color="#FFF"/>
            <stop offset="100%" stop-color="#FFF" stop-opacity="0"/>
        </radialGradient>
    </defs>
    <path fill="url(#a)" fill-rule="nonzero" d="M65.96 27.038c.77-.165 1.486.22 1.816.935l5.39 11.934c.33.715.11 1.54-.496 1.98l-6.984 5.169v17.213a1.62 1.62 0 0 1-1.65 1.65H25.65a1.62 1.62 0 0 1-1.65-1.65V42.216c0-.935.715-1.65 1.65-1.65h15.673l7.755-9.898c.22-.33.605-.55.99-.605zM27.3 62.619h1.814v-.33c0-.77-.66-1.43-1.43-1.43H27.3v1.76zm24.692-18.753H32.414v.33c0 2.585-2.145 4.73-4.73 4.73l-.385-.001v8.634h.386c2.584 0 4.73 2.146 4.73 4.73l-.001.33h24.912v-.33c0-2.584 2.146-4.73 4.73-4.73h.33v-8.028l-7.259 5.39c-.88.659-1.87.989-2.915.989l.157-.004a7.567 7.567 0 0 1-1.752 2.699c-1.484 1.595-3.464 2.365-5.5 2.365-2.089 0-4.014-.825-5.499-2.255a7.78 7.78 0 0 1-2.254-5.5c0-2.09.825-4.014 2.254-5.5a7.735 7.735 0 0 1 9.704-1.009l2.67-2.84zM62.386 60.86h-.33c-.77 0-1.43.66-1.43 1.43v.33h1.76v-1.76zM45.118 48.761c-1.21 0-2.31.44-3.135 1.265-.825.825-1.265 1.925-1.265 3.134 0 1.21.44 2.31 1.265 3.135 1.705 1.705 4.62 1.705 6.325 0 .43-.43.72-.86.932-1.368a4.858 4.858 0 0 1-.767-.722 4.868 4.868 0 0 1-1.027-4.81 4.432 4.432 0 0 0-2.328-.634zM65.3 30.502l-13.969 2.695-5.774 7.424h9.57l1.374-1.484c.605-.66 1.65-.66 2.31-.055.66.605.66 1.65.055 2.31l-7.92 8.414a1.615 1.615 0 0 0-.055 2.2c.605.66 1.595.77 2.255.274l16.444-12.263-4.29-9.515zM29.114 43.866H27.3l-.001 1.76h.386c.77 0 1.43-.66 1.43-1.43l-.001-.33z" transform="translate(-24 -28)"/>
</svg>
