<svg xmlns="http://www.w3.org/2000/svg" width="20" height="20" viewBox="0 0 20 20">
    <g fill="none" fill-rule="evenodd">
        <path d="M-2-2h24v24H-2z"/>
        <path fill="#141029" fill-rule="nonzero" d="M12.417.3c5.357 1.335 8.617 6.762 7.281 12.12-1.335 5.356-6.761 8.617-12.119 7.28C2.224 18.366-1.037 12.94.3 7.583 1.636 2.224 7.06-1.036 12.418.299zm-2.83 3.185l-.45 1.801a36.705 36.705 0 0 1-.7-.164v-.006l-1.513-.378-.291 1.172s.814.187.796.198c.445.111.525.405.512.638l-1.232 4.938c-.054.135-.192.338-.502.26.01.017-.798-.198-.798-.198l-.545 1.256 1.428.356c.266.066.526.136.782.201l-.454 1.824 1.096.273.45-1.804c.3.081.59.156.874.227l-.448 1.795 1.097.274.454-1.82c1.871.354 3.278.211 3.87-1.48.478-1.363-.023-2.15-1.008-2.662.717-.165 1.257-.637 1.401-1.61.2-1.331-.814-2.047-2.2-2.524l.45-1.802-1.097-.274-.437 1.755c-.289-.071-.585-.14-.88-.206l.441-1.767-1.096-.273zm-.462 6.632c.744.185 3.129.553 2.774 1.974-.339 1.362-2.633.626-3.376.44l.602-2.414zm.822-3.297c.62.155 2.614.443 2.292 1.736-.31 1.24-2.219.61-2.838.455l.546-2.19z"/>
    </g>
</svg>
